<svg xmlns="http://www.w3.org/2000/svg" viewBox="0 0 64 64" width="64" height="64">
  <defs>
    <linearGradient id="favBg" x1="0%" y1="0%" x2="100%" y2="100%">
      <stop offset="0%" stop-color="#0284c7" />
      <stop offset="100%" stop-color="#38bdf8" />
    </linearGradient>
    <linearGradient id="gold" x1="0%" y1="0%" x2="100%" y2="100%">
      <stop offset="0%" stop-color="#fef08a" />
      <stop offset="100%" stop-color="#f59e0b" />
    </linearGradient>
  </defs>
  <rect width="64" height="64" rx="14" fill="url(#favBg)" />
  <!-- Castle Top Spire -->
  <polygon points="32,8 38,24 26,24" fill="#ffffff" />
  <rect x="28" y="24" width="8" height="24" fill="#ffffff" rx="1" />
  <!-- Left Spire -->
  <polygon points="18,18 22,28 14,28" fill="#e0f2fe" />
  <rect x="15" y="28" width="6" height="20" fill="#e0f2fe" rx="1" />
  <!-- Right Spire -->
  <polygon points="46,18 50,28 42,28" fill="#e0f2fe" />
  <rect x="43" y="28" width="6" height="20" fill="#e0f2fe" rx="1" />
  <!-- Base Wall -->
  <rect x="12" y="38" width="40" height="18" fill="#bae6fd" rx="3" />
  <path d="M26,56 C26,46 38,46 38,56 Z" fill="#0369a1" />
  <!-- Star on Top -->
  <polygon points="32,4 34,7 37,7 35,9 36,12 32,10 28,12 29,9 27,7 30,7" fill="url(#gold)" />
</svg>
